<svg width="140" height="44" viewBox="0 0 140 44" fill="none" xmlns="http://www.w3.org/2000/svg">
<rect width="140" height="44" rx="5" fill="black"/>
<path d="M28.5041 5.36597H28.4959C19.3982 5.36597 12 12.8264 12 22.0001C12 25.6388 13.1632 29.0114 15.1412 31.7498L13.0849 37.9294L19.4271 35.8855C22.0361 37.6279 25.1484 38.6343 28.5041 38.6343C37.6018 38.6343 45 31.1718 45 22.0001C45 12.8285 37.6018 5.36597 28.5041 5.36597Z" fill="#4CAF50"/>
<path d="M38.1051 28.8551C37.7071 29.9883 36.1272 30.9281 34.867 31.2026C34.0049 31.3876 32.8788 31.5353 29.0879 29.9509C24.2389 27.9257 21.1163 22.9583 20.8729 22.636C20.6399 22.3137 18.9136 20.0057 18.9136 17.6187C18.9136 15.2317 20.116 14.0694 20.6007 13.5704C20.9988 13.1608 21.6567 12.9736 22.2878 12.9736C22.492 12.9736 22.6756 12.984 22.8406 12.9923C23.3253 13.0131 23.5686 13.0422 23.8883 13.8137C24.2864 14.7805 25.2558 17.1675 25.3713 17.4129C25.4888 17.6582 25.6064 17.9909 25.4414 18.3132C25.2867 18.6459 25.1506 18.7935 24.9072 19.0763C24.6638 19.3591 24.4328 19.5753 24.1894 19.8789C23.9667 20.1429 23.7151 20.4257 23.9956 20.9144C24.2761 21.3926 25.2454 22.9874 26.6727 24.2682C28.5145 25.9212 30.0078 26.4494 30.5419 26.6739C30.94 26.8403 31.4144 26.8008 31.7052 26.4889C32.0744 26.0876 32.5302 25.4222 32.9943 24.7672C33.3243 24.2973 33.7409 24.2391 34.1781 24.4054C34.6236 24.5614 36.9811 25.7362 37.4658 25.9795C37.9505 26.2248 38.2701 26.3412 38.3877 26.5471C38.5032 26.7529 38.5032 27.7198 38.1051 28.8551Z" fill="#FAFAFA"/>
<path d="M60.764 17.619C59.604 17.619 58.608 17.219 57.776 16.419C56.952 15.619 56.54 14.539 56.54 13.179C56.54 12.267 56.748 11.467 57.164 10.779C57.58 10.091 58.104 9.58296 58.736 9.25496C59.368 8.91896 60.044 8.75096 60.764 8.75096C61.724 8.75096 62.532 8.99496 63.188 9.48296C63.852 9.96296 64.292 10.619 64.508 11.451L63.416 11.835C63.256 11.195 62.948 10.703 62.492 10.359C62.036 10.007 61.46 9.83096 60.764 9.83096C59.932 9.83096 59.22 10.127 58.628 10.719C58.036 11.303 57.74 12.123 57.74 13.179C57.74 14.235 58.036 15.059 58.628 15.651C59.22 16.243 59.932 16.539 60.764 16.539C61.46 16.539 62.04 16.355 62.504 15.987C62.968 15.611 63.292 15.115 63.476 14.499L64.52 14.883C64.288 15.707 63.84 16.371 63.176 16.875C62.52 17.371 61.716 17.619 60.764 17.619ZM66.9708 14.043V17.439H65.8428V8.75096H66.9708V12.339C67.3548 11.779 67.9388 11.499 68.7228 11.499C69.3868 11.499 69.8948 11.711 70.2468 12.135C70.6068 12.559 70.7868 13.107 70.7868 13.779V17.439H69.6588V13.971C69.6588 13.003 69.2108 12.519 68.3148 12.519C67.8988 12.519 67.5748 12.663 67.3428 12.951C67.1108 13.231 66.9868 13.595 66.9708 14.043ZM72.2211 15.891C72.2211 15.395 72.3811 14.999 72.7011 14.703C73.0211 14.399 73.4451 14.211 73.9731 14.139L75.5331 13.911C75.8291 13.871 75.9771 13.727 75.9771 13.479C75.9771 13.175 75.8731 12.927 75.6651 12.735C75.4571 12.543 75.1451 12.447 74.7291 12.447C74.3451 12.447 74.0411 12.555 73.8171 12.771C73.5931 12.979 73.4611 13.259 73.4211 13.611L72.3411 13.359C72.3971 12.807 72.6491 12.359 73.0971 12.015C73.5451 11.663 74.0811 11.487 74.7051 11.487C75.5211 11.487 76.1251 11.687 76.5171 12.087C76.9091 12.479 77.1051 12.983 77.1051 13.599V16.491C77.1051 16.835 77.1291 17.151 77.1771 17.439H76.0731C76.0331 17.199 76.0131 16.939 76.0131 16.659C75.8531 16.915 75.6171 17.139 75.3051 17.331C75.0011 17.523 74.6171 17.619 74.1531 17.619C73.5851 17.619 73.1211 17.451 72.7611 17.115C72.4011 16.771 72.2211 16.363 72.2211 15.891ZM74.3091 16.671C74.8131 16.671 75.2171 16.535 75.5211 16.263C75.8251 15.991 75.9771 15.559 75.9771 14.967V14.703L74.2131 14.967C73.9571 15.007 73.7531 15.099 73.6011 15.243C73.4491 15.387 73.3731 15.583 73.3731 15.831C73.3731 16.055 73.4571 16.251 73.6251 16.419C73.8011 16.587 74.0291 16.671 74.3091 16.671ZM80.3743 9.84296V11.667H81.6223V12.687H80.3743V15.687C80.3743 15.959 80.4343 16.159 80.5543 16.287C80.6823 16.415 80.8903 16.479 81.1783 16.479C81.3463 16.479 81.4943 16.463 81.6223 16.431V17.391C81.4303 17.463 81.1743 17.499 80.8543 17.499C80.3583 17.499 79.9663 17.355 79.6783 17.067C79.3903 16.779 79.2463 16.375 79.2463 15.855V12.687H78.1423V11.667H78.4543C78.7503 11.667 78.9703 11.587 79.1143 11.427C79.2663 11.259 79.3423 11.043 79.3423 10.779V9.84296H80.3743ZM87.808 10.719C87.208 11.303 86.908 12.123 86.908 13.179C86.908 14.235 87.208 15.059 87.808 15.651C88.408 16.243 89.132 16.539 89.98 16.539C90.828 16.539 91.552 16.243 92.152 15.651C92.752 15.059 93.052 14.235 93.052 13.179C93.052 12.123 92.752 11.303 92.152 10.719C91.552 10.127 90.828 9.83096 89.98 9.83096C89.132 9.83096 88.408 10.127 87.808 10.719ZM85.708 13.179C85.708 12.491 85.828 11.863 86.068 11.295C86.316 10.727 86.64 10.263 87.04 9.90296C87.448 9.53496 87.904 9.25096 88.408 9.05096C88.912 8.85096 89.436 8.75096 89.98 8.75096C90.524 8.75096 91.048 8.85096 91.552 9.05096C92.056 9.25096 92.508 9.53496 92.908 9.90296C93.316 10.263 93.64 10.727 93.88 11.295C94.128 11.863 94.252 12.491 94.252 13.179C94.252 14.091 94.04 14.891 93.616 15.579C93.2 16.267 92.672 16.779 92.032 17.115C91.392 17.451 90.708 17.619 89.98 17.619C89.252 17.619 88.568 17.451 87.928 17.115C87.288 16.779 86.756 16.267 86.332 15.579C85.916 14.891 85.708 14.091 85.708 13.179ZM96.8771 14.103V17.439H95.7491V11.667H96.8531V12.495C97.2371 11.831 97.8291 11.499 98.6291 11.499C99.2931 11.499 99.8011 11.711 100.153 12.135C100.513 12.559 100.693 13.107 100.693 13.779V17.439H99.5651V13.971C99.5651 13.003 99.1171 12.519 98.2211 12.519C97.7971 12.519 97.4651 12.671 97.2251 12.975C96.9931 13.271 96.8771 13.647 96.8771 14.103Z" fill="white"/>
<path d="M64.952 30.6889L66.488 24.8089H68.18L65.828 33.3169H64.124L62.18 27.2569L60.236 33.3169H58.508L56.144 24.8089H57.896L59.456 30.6649L61.34 24.8089H63.056L64.952 30.6889ZM70.7761 29.8489V33.3169H69.1801V24.6289H70.7761V27.9049C71.1361 27.4729 71.6681 27.2569 72.3721 27.2569C73.0921 27.2569 73.6361 27.4769 74.0041 27.9169C74.3801 28.3489 74.5681 28.9089 74.5681 29.5969V33.3169H72.9721V29.8729C72.9721 29.5209 72.8801 29.2369 72.6961 29.0209C72.5201 28.8049 72.2481 28.6969 71.8801 28.6969C71.5521 28.6969 71.2881 28.8049 71.0881 29.0209C70.8961 29.2369 70.7921 29.5129 70.7761 29.8489ZM75.8279 31.7089C75.8279 31.2049 75.9919 30.8009 76.3199 30.4969C76.6479 30.1929 77.0719 30.0009 77.5919 29.9209L79.0439 29.7049C79.3399 29.6649 79.4879 29.5249 79.4879 29.2849C79.4879 29.0609 79.3999 28.8769 79.2239 28.7329C79.0559 28.5889 78.8119 28.5169 78.4919 28.5169C78.1559 28.5169 77.8879 28.6089 77.6879 28.7929C77.4959 28.9769 77.3879 29.2049 77.3639 29.4769L75.9479 29.1769C76.0039 28.6649 76.2559 28.2129 76.7039 27.8209C77.1519 27.4289 77.7439 27.2329 78.4799 27.2329C79.3599 27.2329 80.0079 27.4449 80.4239 27.8689C80.8399 28.2849 81.0479 28.8209 81.0479 29.4769V32.3809C81.0479 32.7329 81.0719 33.0449 81.1199 33.3169H79.6559C79.6159 33.1409 79.5959 32.9049 79.5959 32.6089C79.2199 33.1929 78.6399 33.4849 77.8559 33.4849C77.2479 33.4849 76.7559 33.3089 76.3799 32.9569C76.0119 32.6049 75.8279 32.1889 75.8279 31.7089ZM78.1919 32.2969C78.5679 32.2969 78.8759 32.1929 79.1159 31.9849C79.3639 31.7689 79.4879 31.4169 79.4879 30.9289V30.6649L78.1559 30.8689C77.6679 30.9409 77.4239 31.1889 77.4239 31.6129C77.4239 31.8049 77.4919 31.9689 77.6279 32.1049C77.7639 32.2329 77.9519 32.2969 78.1919 32.2969ZM84.5895 25.6489V27.4129H85.7775V28.8289H84.5895V31.3009C84.5895 31.5489 84.6455 31.7249 84.7575 31.8289C84.8695 31.9329 85.0455 31.9849 85.2855 31.9849C85.5015 31.9849 85.6655 31.9689 85.7775 31.9369V33.2569C85.5455 33.3529 85.2455 33.4009 84.8775 33.4009C84.3015 33.4009 83.8455 33.2409 83.5095 32.9209C83.1735 32.5929 83.0055 32.1449 83.0055 31.5769V28.8289H81.9375V27.4129H82.2375C82.5335 27.4129 82.7575 27.3289 82.9095 27.1609C83.0695 26.9849 83.1495 26.7569 83.1495 26.4769V25.6489H84.5895ZM86.7582 31.6729L88.1262 31.3729C88.1422 31.6289 88.2422 31.8449 88.4262 32.0209C88.6182 32.1889 88.8782 32.2729 89.2062 32.2729C89.4542 32.2729 89.6462 32.2169 89.7822 32.1049C89.9182 31.9929 89.9862 31.8529 89.9862 31.6849C89.9862 31.3889 89.7742 31.1969 89.3502 31.1089L88.5702 30.9289C88.0182 30.8089 87.6022 30.5929 87.3222 30.2809C87.0502 29.9689 86.9142 29.5969 86.9142 29.1649C86.9142 28.6289 87.1222 28.1729 87.5382 27.7969C87.9622 27.4209 88.4902 27.2329 89.1222 27.2329C89.5222 27.2329 89.8742 27.2929 90.1782 27.4129C90.4822 27.5249 90.7182 27.6729 90.8862 27.8569C91.0542 28.0329 91.1822 28.2129 91.2702 28.3969C91.3582 28.5809 91.4142 28.7609 91.4382 28.9369L90.1062 29.2369C90.0742 29.0289 89.9782 28.8449 89.8182 28.6849C89.6662 28.5249 89.4382 28.4449 89.1342 28.4449C88.9262 28.4449 88.7462 28.5009 88.5942 28.6129C88.4502 28.7249 88.3782 28.8649 88.3782 29.0329C88.3782 29.3209 88.5582 29.4969 88.9182 29.5609L89.7582 29.7409C90.3262 29.8609 90.7582 30.0809 91.0542 30.4009C91.3582 30.7209 91.5102 31.1049 91.5102 31.5529C91.5102 32.0809 91.3102 32.5369 90.9102 32.9209C90.5102 33.3049 89.9462 33.4969 89.2182 33.4969C88.8022 33.4969 88.4302 33.4369 88.1022 33.3169C87.7742 33.1889 87.5182 33.0289 87.3342 32.8369C87.1582 32.6369 87.0222 32.4409 86.9262 32.2489C86.8382 32.0489 86.7822 31.8569 86.7582 31.6729ZM92.3865 31.7089C92.3865 31.2049 92.5505 30.8009 92.8785 30.4969C93.2065 30.1929 93.6305 30.0009 94.1505 29.9209L95.6025 29.7049C95.8985 29.6649 96.0465 29.5249 96.0465 29.2849C96.0465 29.0609 95.9585 28.8769 95.7825 28.7329C95.6145 28.5889 95.3705 28.5169 95.0505 28.5169C94.7145 28.5169 94.4465 28.6089 94.2465 28.7929C94.0545 28.9769 93.9465 29.2049 93.9225 29.4769L92.5065 29.1769C92.5625 28.6649 92.8145 28.2129 93.2625 27.8209C93.7105 27.4289 94.3025 27.2329 95.0385 27.2329C95.9185 27.2329 96.5665 27.4449 96.9825 27.8689C97.3985 28.2849 97.6065 28.8209 97.6065 29.4769V32.3809C97.6065 32.7329 97.6305 33.0449 97.6785 33.3169H96.2145C96.1745 33.1409 96.1545 32.9049 96.1545 32.6089C95.7785 33.1929 95.1985 33.4849 94.4145 33.4849C93.8065 33.4849 93.3145 33.3089 92.9385 32.9569C92.5705 32.6049 92.3865 32.1889 92.3865 31.7089ZM94.7505 32.2969C95.1265 32.2969 95.4345 32.1929 95.6745 31.9849C95.9225 31.7689 96.0465 31.4169 96.0465 30.9289V30.6649L94.7145 30.8689C94.2265 30.9409 93.9825 31.1889 93.9825 31.6129C93.9825 31.8049 94.0505 31.9689 94.1865 32.1049C94.3225 32.2329 94.5105 32.2969 94.7505 32.2969ZM100.811 35.5969H99.2153V27.4129H100.763V28.1329C100.907 27.8929 101.139 27.6929 101.459 27.5329C101.779 27.3649 102.151 27.2809 102.575 27.2809C103.415 27.2809 104.079 27.5689 104.567 28.1449C105.055 28.7129 105.299 29.4489 105.299 30.3529C105.299 31.2569 105.039 32.0009 104.519 32.5849C104.007 33.1689 103.339 33.4609 102.515 33.4609C101.731 33.4609 101.163 33.2209 100.811 32.7409V35.5969ZM103.307 31.5889C103.587 31.2849 103.727 30.8769 103.727 30.3649C103.727 29.8529 103.587 29.4489 103.307 29.1529C103.035 28.8569 102.687 28.7089 102.263 28.7089C101.839 28.7089 101.487 28.8609 101.207 29.1649C100.927 29.4609 100.787 29.8609 100.787 30.3649C100.787 30.8689 100.927 31.2729 101.207 31.5769C101.487 31.8809 101.839 32.0329 102.263 32.0329C102.687 32.0329 103.035 31.8849 103.307 31.5889ZM108.159 35.5969H106.563V27.4129H108.111V28.1329C108.255 27.8929 108.487 27.6929 108.807 27.5329C109.127 27.3649 109.499 27.2809 109.923 27.2809C110.763 27.2809 111.427 27.5689 111.915 28.1449C112.403 28.7129 112.647 29.4489 112.647 30.3529C112.647 31.2569 112.387 32.0009 111.867 32.5849C111.355 33.1689 110.687 33.4609 109.863 33.4609C109.079 33.4609 108.511 33.2209 108.159 32.7409V35.5969ZM110.655 31.5889C110.935 31.2849 111.075 30.8769 111.075 30.3649C111.075 29.8529 110.935 29.4489 110.655 29.1529C110.383 28.8569 110.035 28.7089 109.611 28.7089C109.187 28.7089 108.835 28.8609 108.555 29.1649C108.275 29.4609 108.135 29.8609 108.135 30.3649C108.135 30.8689 108.275 31.2729 108.555 31.5769C108.835 31.8809 109.187 32.0329 109.611 32.0329C110.035 32.0329 110.383 31.8849 110.655 31.5889Z" fill="white"/>
</svg>
