<svg width="36" height="108" viewBox="0 0 36 108" fill="none" xmlns="http://www.w3.org/2000/svg">
<rect x="0.5" y="0.5" width="35" height="107" rx="17.5" fill="white" stroke="#EBE5F6"/>
<path opacity="0.5" d="M15.37 17.3955L15.62 18.5355C15.4067 18.5488 15.2267 18.6321 15.08 18.7855C14.94 18.9455 14.87 19.1621 14.87 19.4355C14.87 19.6421 14.9167 19.8021 15.01 19.9155C15.1033 20.0288 15.22 20.0855 15.36 20.0855C15.6067 20.0855 15.7667 19.9088 15.84 19.5555L15.99 18.9055C16.09 18.4455 16.27 18.0988 16.53 17.8655C16.79 17.6388 17.1 17.5255 17.46 17.5255C17.9067 17.5255 18.2867 17.6988 18.6 18.0455C18.9133 18.3988 19.07 18.8388 19.07 19.3655C19.07 19.6988 19.02 19.9921 18.92 20.2455C18.8267 20.4988 18.7033 20.6955 18.55 20.8355C18.4033 20.9755 18.2533 21.0821 18.1 21.1555C17.9467 21.2288 17.7967 21.2755 17.65 21.2955L17.4 20.1855C17.5733 20.1588 17.7267 20.0788 17.86 19.9455C17.9933 19.8188 18.06 19.6288 18.06 19.3755C18.06 19.2021 18.0133 19.0521 17.92 18.9255C17.8267 18.8055 17.71 18.7455 17.57 18.7455C17.33 18.7455 17.1833 18.8955 17.13 19.1955L16.98 19.8955C16.88 20.3688 16.6967 20.7288 16.43 20.9755C16.1633 21.2288 15.8433 21.3555 15.47 21.3555C15.03 21.3555 14.65 21.1888 14.33 20.8555C14.01 20.5221 13.85 20.0521 13.85 19.4455C13.85 19.0988 13.9 18.7888 14 18.5155C14.1067 18.2421 14.24 18.0288 14.4 17.8755C14.5667 17.7288 14.73 17.6155 14.89 17.5355C15.0567 17.4621 15.2167 17.4155 15.37 17.3955ZM17.84 24.6153C17.84 24.262 17.7167 23.9653 17.47 23.7253C17.2233 23.4853 16.8867 23.3653 16.46 23.3653C16.0333 23.3653 15.6933 23.4853 15.44 23.7253C15.1933 23.972 15.07 24.272 15.07 24.6253C15.07 24.9386 15.15 25.1886 15.31 25.3753C15.4767 25.562 15.6733 25.6886 15.9 25.7553L15.51 26.9253C15.0567 26.8053 14.6667 26.5453 14.34 26.1453C14.0133 25.7453 13.85 25.2386 13.85 24.6253C13.85 23.892 14.0967 23.2753 14.59 22.7753C15.09 22.282 15.7133 22.0353 16.46 22.0353C17.2133 22.0353 17.8367 22.2786 18.33 22.7653C18.8233 23.2586 19.07 23.8653 19.07 24.5853C19.07 25.212 18.9067 25.7253 18.58 26.1253C18.26 26.5253 17.87 26.782 17.41 26.8953L17.01 25.7053C17.5633 25.5453 17.84 25.182 17.84 24.6153ZM18.94 30.9034L17.6 30.9034C17.6267 30.77 17.64 30.6367 17.64 30.5034C17.64 30.1234 17.53 29.8167 17.31 29.5834C17.0967 29.35 16.7433 29.2334 16.25 29.2334L14 29.2334L14 27.9034L18.92 27.9034L18.92 29.1934L18.19 29.1934C18.7033 29.4334 18.96 29.9 18.96 30.5934C18.96 30.6667 18.9533 30.77 18.94 30.9034ZM15.43 33.1101C15.1833 33.3567 15.06 33.6534 15.06 34.0001C15.06 34.3467 15.1833 34.6401 15.43 34.8801C15.6767 35.1267 16.02 35.2501 16.46 35.2501C16.9 35.2501 17.2433 35.1267 17.49 34.8801C17.7367 34.6401 17.86 34.3467 17.86 34.0001C17.86 33.6534 17.7367 33.3567 17.49 33.1101C17.2433 32.8701 16.9 32.7501 16.46 32.7501C16.02 32.7501 15.6767 32.8701 15.43 33.1101ZM18.33 32.1501C18.8233 32.6434 19.07 33.2601 19.07 34.0001C19.07 34.7401 18.8233 35.3534 18.33 35.8401C17.8367 36.3334 17.2133 36.5801 16.46 36.5801C15.7067 36.5801 15.0833 36.3334 14.59 35.8401C14.0967 35.3534 13.85 34.7401 13.85 34.0001C13.85 33.2601 14.0967 32.6434 14.59 32.1501C15.0833 31.6634 15.7067 31.4201 16.46 31.4201C17.2133 31.4201 17.8367 31.6634 18.33 32.1501ZM14 38.9599L14 37.6299L21.24 37.6299L21.24 38.9599L14 38.9599ZM14 41.7138L14 40.3838L21.24 40.3838L21.24 41.7138L14 41.7138ZM21.24 50.2984L14.89 50.2984C14.5633 50.2984 14.2667 50.3118 14 50.3384L14 49.0684C14.1667 49.0351 14.3567 49.0184 14.57 49.0184C14.3633 48.9051 14.1967 48.7251 14.07 48.4784C13.9433 48.2384 13.88 47.9584 13.88 47.6384C13.88 46.9384 14.1233 46.3618 14.61 45.9084C15.1033 45.4618 15.7233 45.2384 16.47 45.2384C17.1967 45.2384 17.8067 45.4584 18.3 45.8984C18.7933 46.3451 19.04 46.9118 19.04 47.5984C19.04 48.3051 18.8367 48.7684 18.43 48.9884L21.24 48.9884L21.24 50.2984ZM16.47 46.5784C16.0367 46.5784 15.6933 46.6918 15.44 46.9184C15.1933 47.1451 15.07 47.4384 15.07 47.7984C15.07 48.1518 15.1967 48.4418 15.45 48.6684C15.7033 48.8951 16.0467 49.0084 16.48 49.0084C16.9067 49.0084 17.24 48.8951 17.48 48.6684C17.7267 48.4418 17.85 48.1518 17.85 47.7984C17.85 47.4451 17.7267 47.1518 17.48 46.9184C17.2333 46.6918 16.8967 46.5784 16.47 46.5784ZM15.43 53.0612C15.1833 53.3079 15.06 53.6046 15.06 53.9512C15.06 54.2979 15.1833 54.5912 15.43 54.8312C15.6767 55.0779 16.02 55.2012 16.46 55.2012C16.9 55.2012 17.2433 55.0779 17.49 54.8312C17.7367 54.5912 17.86 54.2979 17.86 53.9512C17.86 53.6046 17.7367 53.3079 17.49 53.0612C17.2433 52.8212 16.9 52.7012 16.46 52.7012C16.02 52.7012 15.6767 52.8212 15.43 53.0612ZM18.33 52.1012C18.8233 52.5946 19.07 53.2112 19.07 53.9512C19.07 54.6912 18.8233 55.3046 18.33 55.7912C17.8367 56.2846 17.2133 56.5312 16.46 56.5312C15.7067 56.5312 15.0833 56.2846 14.59 55.7912C14.0967 55.3046 13.85 54.6912 13.85 53.9512C13.85 53.2112 14.0967 52.5946 14.59 52.1012C15.0833 51.6146 15.7067 51.3712 16.46 51.3712C17.2133 51.3712 17.8367 51.6146 18.33 52.1012ZM18.92 60.2441L18.92 61.6441L15.75 62.7041L18.92 63.6141L18.92 64.9341L14 63.3941L14 62.0641L17.36 60.9141L14 59.7841L14 58.4341L18.92 56.8641L18.92 58.2641L15.76 59.1741L18.92 60.2441ZM16.83 67.0947L14 67.0947L14 65.7647L18.92 65.7647L18.92 67.0547L18.31 67.0547C18.55 67.1947 18.7333 67.3947 18.86 67.6547C18.9867 67.9147 19.05 68.188 19.05 68.4747C19.05 69.0547 18.8667 69.4947 18.5 69.7947C18.14 70.1014 17.6733 70.2547 17.1 70.2547L14 70.2547L14 68.9247L16.87 68.9247C17.1633 68.9247 17.4 68.848 17.58 68.6947C17.76 68.548 17.85 68.3214 17.85 68.0147C17.85 67.7347 17.7533 67.5114 17.56 67.3447C17.3667 67.178 17.1233 67.0947 16.83 67.0947Z" fill="#1A0444"/>
<path opacity="0.5" d="M13.7067 84.0621L18 88.3333L22.2933 84.0621C22.344 84.0236 22.3858 83.9746 22.4158 83.9184C22.4459 83.8623 22.4636 83.8004 22.4676 83.7368C22.4717 83.6733 22.462 83.6096 22.4393 83.5501C22.4166 83.4907 22.3814 83.4367 22.3361 83.392C22.2907 83.3473 22.2363 83.3129 22.1765 83.2911C22.1167 83.2692 22.0529 83.2605 21.9894 83.2655C21.926 83.2704 21.8643 83.289 21.8086 83.3198C21.7529 83.3507 21.7045 83.3932 21.6667 83.4444L18.4444 86.6399L18.4444 78.1377C18.4444 78.0198 18.3976 77.9068 18.3143 77.8234C18.2309 77.7401 18.1179 77.6933 18 77.6933C17.8821 77.6933 17.7691 77.7401 17.6857 77.8234C17.6024 77.9068 17.5555 78.0198 17.5555 78.1377L17.5555 86.6399L14.3333 83.4444C14.2496 83.3613 14.1364 83.3148 14.0184 83.3152C13.9005 83.3156 13.7875 83.3629 13.7044 83.4466C13.6213 83.5303 13.5749 83.6435 13.5753 83.7615C13.5757 83.8794 13.623 83.9924 13.7067 84.0755L13.7067 84.0621Z" fill="#1A0444"/>
</svg>
